<svg id="svg" version="1.1" xmlns="http://www.w3.org/2000/svg" xmlns:xlink="http://www.w3.org/1999/xlink" width="400" height="400" viewBox="0, 0, 400,400"><g id="svgg"><path id="path0" d="M47.600 16.399 C 46.817 16.847,45.599 17.282,44.600 17.472 C 44.160 17.555,43.740 17.798,43.667 18.012 C 43.593 18.225,43.323 18.400,43.067 18.400 C 42.810 18.401,42.077 18.851,41.438 19.400 C 40.799 19.950,40.421 20.400,40.599 20.400 C 40.777 20.400,40.310 20.997,39.561 21.727 C 38.813 22.457,37.954 23.582,37.653 24.227 C 37.353 24.872,36.934 25.734,36.724 26.142 C 36.429 26.712,36.463 26.814,36.870 26.583 C 37.296 26.341,37.302 26.388,36.900 26.821 C 36.625 27.118,36.400 27.763,36.400 28.256 C 36.400 28.749,36.220 29.264,36.000 29.400 C 35.780 29.536,35.600 30.526,35.600 31.600 C 35.600 32.674,35.780 33.664,36.000 33.800 C 36.220 33.936,36.406 34.622,36.413 35.324 C 36.420 36.026,36.684 36.942,37.000 37.359 C 37.316 37.776,37.480 38.271,37.364 38.459 C 37.248 38.647,37.343 38.800,37.576 38.800 C 37.809 38.800,38.000 39.070,38.000 39.400 C 38.000 39.730,38.180 40.000,38.400 40.000 C 38.620 40.000,38.800 40.236,38.800 40.525 C 38.800 40.813,39.160 41.436,39.600 41.908 C 40.040 42.380,40.400 43.044,40.400 43.383 C 40.400 43.722,40.580 44.000,40.800 44.000 C 41.020 44.000,41.200 44.360,41.200 44.800 C 41.200 45.240,41.353 45.600,41.539 45.600 C 41.726 45.600,42.203 46.320,42.600 47.200 C 42.997 48.080,43.485 48.800,43.684 48.800 C 43.884 48.800,43.936 48.980,43.800 49.200 C 43.664 49.420,43.743 49.600,43.976 49.600 C 44.209 49.600,44.371 49.735,44.336 49.900 C 44.236 50.373,44.898 51.771,45.371 52.085 C 45.607 52.242,45.824 52.512,45.854 52.685 C 46.046 53.809,46.545 54.758,46.845 54.572 C 47.040 54.451,47.204 54.678,47.209 55.076 C 47.214 55.474,47.570 56.250,48.000 56.800 C 48.430 57.350,48.786 58.025,48.791 58.300 C 48.796 58.575,48.980 58.800,49.200 58.800 C 49.420 58.800,49.600 59.160,49.600 59.600 C 49.600 60.040,49.780 60.400,50.000 60.400 C 50.220 60.400,50.400 60.676,50.400 61.013 C 50.400 61.349,50.659 61.724,50.976 61.846 C 51.292 61.967,51.666 62.592,51.807 63.233 C 51.948 63.875,52.229 64.400,52.432 64.400 C 52.634 64.400,52.800 64.760,52.800 65.200 C 52.800 65.640,52.980 66.000,53.200 66.000 C 53.420 66.000,53.600 66.182,53.600 66.405 C 53.600 66.627,54.320 67.864,55.200 69.153 C 56.080 70.442,56.800 71.618,56.800 71.765 C 56.800 71.913,57.160 72.420,57.600 72.892 C 58.040 73.364,58.400 74.055,58.400 74.426 C 58.400 74.798,58.670 75.326,59.000 75.600 C 59.330 75.874,59.600 76.324,59.600 76.600 C 59.600 76.876,59.868 77.324,60.196 77.596 C 60.523 77.868,60.704 78.231,60.598 78.403 C 60.492 78.575,60.685 78.824,61.028 78.955 C 61.370 79.087,61.548 79.361,61.422 79.565 C 61.296 79.769,61.509 80.252,61.896 80.639 C 62.283 81.026,62.571 81.397,62.535 81.462 C 62.359 81.786,62.938 83.200,63.247 83.200 C 63.441 83.200,63.600 83.470,63.600 83.800 C 63.600 84.130,63.780 84.400,64.000 84.400 C 64.220 84.400,64.404 84.715,64.409 85.100 C 64.414 85.485,64.770 86.250,65.200 86.800 C 65.630 87.350,65.986 88.025,65.991 88.300 C 65.996 88.575,66.180 88.800,66.400 88.800 C 66.620 88.800,66.800 89.070,66.800 89.400 C 66.800 89.730,66.980 90.000,67.200 90.000 C 67.420 90.000,67.600 90.360,67.600 90.800 C 67.600 91.240,67.755 91.600,67.944 91.600 C 68.134 91.600,68.719 92.455,69.244 93.500 C 69.770 94.545,70.290 95.490,70.400 95.600 C 70.614 95.814,71.448 97.239,72.210 98.694 C 72.468 99.186,72.796 99.471,72.939 99.327 C 73.083 99.184,73.204 99.412,73.209 99.833 C 73.214 100.255,73.570 101.050,74.000 101.600 C 74.430 102.150,74.786 102.733,74.791 102.895 C 74.796 103.058,75.115 103.559,75.500 104.008 C 75.885 104.458,76.146 104.915,76.081 105.024 C 75.967 105.212,77.576 108.376,78.000 108.800 C 78.404 109.204,79.230 110.620,79.458 111.300 C 79.588 111.685,79.838 112.000,80.015 112.000 C 80.192 112.000,80.455 112.542,80.601 113.203 C 80.746 113.865,81.030 114.305,81.233 114.180 C 81.435 114.055,81.600 114.323,81.600 114.776 C 81.600 115.229,81.780 115.600,82.000 115.600 C 82.220 115.600,82.400 115.966,82.400 116.413 C 82.400 116.859,82.652 117.322,82.961 117.440 C 83.482 117.640,84.142 119.017,84.043 119.700 C 84.019 119.865,84.180 120.000,84.400 120.000 C 84.620 120.000,84.800 120.270,84.800 120.600 C 84.800 120.930,84.947 121.200,85.126 121.200 C 85.305 121.200,85.751 121.785,86.117 122.500 C 86.483 123.215,87.238 124.520,87.793 125.400 C 88.349 126.280,89.040 127.498,89.329 128.107 C 89.617 128.715,89.976 129.090,90.127 128.940 C 90.277 128.790,90.400 129.147,90.400 129.733 C 90.400 130.320,90.590 130.800,90.822 130.800 C 91.054 130.800,91.617 131.697,92.072 132.793 C 92.539 133.914,93.080 134.674,93.312 134.531 C 93.552 134.383,93.602 134.473,93.433 134.747 C 93.273 135.006,93.695 136.116,94.371 137.215 C 95.047 138.313,95.600 139.389,95.600 139.606 C 95.600 139.823,95.739 140.000,95.908 140.000 C 96.078 140.000,96.663 140.855,97.208 141.900 C 97.754 142.945,98.335 143.860,98.500 143.933 C 98.665 144.007,98.800 144.412,98.800 144.833 C 98.800 145.255,98.938 145.600,99.106 145.600 C 99.274 145.600,99.725 146.275,100.108 147.100 C 101.286 149.638,102.276 151.191,102.544 150.923 C 102.685 150.782,102.800 151.048,102.800 151.513 C 102.800 151.979,103.115 152.544,103.500 152.768 C 103.885 152.992,104.044 153.181,103.853 153.188 C 103.661 153.195,103.969 153.808,104.535 154.551 C 105.102 155.293,105.453 156.013,105.316 156.151 C 105.179 156.288,105.277 156.400,105.533 156.400 C 105.790 156.400,106.000 156.670,106.000 157.000 C 106.000 157.330,106.180 157.600,106.400 157.600 C 106.620 157.600,106.800 157.870,106.800 158.200 C 106.800 158.530,106.980 158.800,107.200 158.800 C 107.420 158.800,107.600 159.160,107.600 159.600 C 107.600 160.040,107.735 160.401,107.900 160.403 C 108.065 160.405,108.399 160.810,108.643 161.303 C 110.742 165.556,111.678 167.200,111.999 167.200 C 112.206 167.200,112.290 167.425,112.185 167.700 C 112.081 167.975,112.443 168.718,112.989 169.352 C 113.536 169.986,113.869 170.689,113.730 170.914 C 113.584 171.149,113.673 171.202,113.938 171.038 C 114.316 170.805,114.622 171.347,114.312 171.700 C 114.264 171.755,114.804 172.642,115.512 173.672 C 116.220 174.702,116.800 175.827,116.800 176.172 C 116.800 176.517,116.980 176.800,117.200 176.800 C 117.420 176.800,117.600 176.992,117.600 177.227 C 117.600 177.461,118.071 178.271,118.647 179.027 C 119.224 179.782,119.539 180.403,119.347 180.406 C 119.156 180.409,119.180 180.544,119.401 180.706 C 119.621 180.868,120.071 181.540,120.400 182.200 C 120.729 182.860,121.089 183.490,121.199 183.600 C 121.595 183.994,122.854 186.213,123.071 186.900 C 123.193 187.285,123.452 187.600,123.647 187.600 C 123.841 187.600,124.000 187.855,124.000 188.167 C 124.000 188.478,124.142 188.793,124.316 188.867 C 124.718 189.036,126.800 193.451,126.800 194.134 C 126.800 194.416,127.050 194.989,127.356 195.407 C 127.661 195.825,127.829 196.381,127.728 196.643 C 127.628 196.905,127.738 197.238,127.973 197.383 C 128.208 197.528,128.400 198.162,128.400 198.790 C 128.400 199.419,128.566 199.993,128.769 200.067 C 128.971 200.140,129.207 201.051,129.293 202.091 C 129.378 203.130,129.572 204.105,129.724 204.257 C 130.132 204.666,130.060 216.716,129.647 216.971 C 129.453 217.091,129.284 217.936,129.272 218.850 C 129.259 219.764,129.058 220.702,128.824 220.936 C 128.591 221.169,128.400 221.834,128.400 222.413 C 128.400 222.993,128.275 223.592,128.122 223.745 C 127.849 224.018,127.595 224.910,127.510 225.900 C 127.486 226.175,127.309 226.400,127.116 226.400 C 126.923 226.400,126.807 226.625,126.858 226.900 C 126.909 227.175,126.466 228.379,125.875 229.575 C 125.284 230.771,124.800 231.997,124.800 232.298 C 124.800 232.600,124.620 232.736,124.400 232.600 C 124.180 232.464,123.996 232.588,123.991 232.876 C 123.986 233.164,123.630 233.850,123.200 234.400 C 122.770 234.950,122.414 235.704,122.409 236.075 C 122.404 236.447,121.860 237.342,121.200 238.064 C 120.540 238.787,120.000 239.608,120.000 239.889 C 120.000 240.170,119.820 240.400,119.600 240.400 C 119.380 240.400,119.200 240.760,119.200 241.200 C 119.200 241.640,119.020 242.000,118.800 242.000 C 118.580 242.000,118.400 242.270,118.400 242.600 C 118.400 242.930,118.220 243.200,118.000 243.200 C 117.780 243.200,117.600 243.397,117.600 243.638 C 117.600 243.879,117.260 244.554,116.844 245.138 C 116.428 245.722,116.100 246.290,116.116 246.400 C 116.131 246.510,115.648 247.349,115.042 248.266 C 114.071 249.732,113.743 250.536,113.631 251.724 C 113.614 251.902,113.420 251.936,113.200 251.800 C 112.980 251.664,112.800 251.878,112.800 252.276 C 112.799 252.674,112.349 253.523,111.800 254.162 C 110.880 255.232,110.738 255.538,110.834 256.255 C 110.853 256.396,110.705 256.621,110.504 256.755 C 110.304 256.890,109.704 257.810,109.170 258.800 C 108.637 259.790,108.020 260.732,107.800 260.894 C 107.580 261.056,107.556 261.191,107.747 261.194 C 107.939 261.197,107.624 261.818,107.047 262.573 C 106.471 263.329,106.000 264.139,106.000 264.373 C 106.000 264.608,105.820 264.800,105.600 264.800 C 105.380 264.800,105.200 265.070,105.200 265.400 C 105.200 265.730,105.062 266.000,104.894 266.000 C 104.726 266.000,104.282 266.675,103.906 267.500 C 103.219 269.011,101.971 271.229,101.600 271.600 C 101.489 271.710,100.982 272.655,100.472 273.700 C 99.961 274.745,99.377 275.600,99.172 275.600 C 98.967 275.600,98.800 275.887,98.800 276.238 C 98.800 276.589,98.461 277.354,98.046 277.938 C 96.584 279.998,94.795 283.250,95.293 282.942 C 95.571 282.771,95.222 283.329,94.518 284.184 C 93.814 285.038,93.330 285.886,93.442 286.068 C 93.555 286.251,93.469 286.400,93.251 286.400 C 92.875 286.400,92.372 287.490,92.146 288.793 C 92.090 289.119,91.854 289.449,91.622 289.526 C 91.390 289.603,91.200 289.888,91.200 290.158 C 91.200 290.428,90.885 291.006,90.500 291.442 C 89.612 292.447,88.417 294.391,88.129 295.300 C 88.007 295.685,87.748 296.000,87.553 296.000 C 87.359 296.000,87.193 296.315,87.184 296.700 C 87.175 297.085,86.635 298.023,85.984 298.785 C 85.333 299.547,84.800 300.387,84.800 300.652 C 84.800 300.917,84.665 301.193,84.500 301.267 C 84.230 301.387,83.022 303.489,81.840 305.897 C 81.598 306.390,81.265 306.795,81.100 306.797 C 80.935 306.799,80.800 307.160,80.800 307.600 C 80.800 308.040,80.590 308.400,80.333 308.400 C 80.077 308.400,79.979 308.512,80.116 308.649 C 80.253 308.787,79.949 309.462,79.439 310.149 C 78.930 310.837,78.264 311.985,77.959 312.700 C 77.654 313.415,77.254 314.000,77.069 314.000 C 76.884 314.000,76.805 314.214,76.892 314.475 C 76.979 314.736,76.724 315.276,76.325 315.675 C 75.926 316.074,75.600 316.670,75.600 317.000 C 75.600 317.330,75.420 317.600,75.200 317.600 C 74.980 317.600,74.800 317.887,74.800 318.238 C 74.800 318.892,73.280 321.294,72.714 321.533 C 72.542 321.607,72.400 322.012,72.400 322.433 C 72.400 322.855,72.220 323.200,72.000 323.200 C 71.780 323.200,71.600 323.436,71.600 323.725 C 71.600 324.013,71.240 324.636,70.800 325.108 C 70.360 325.580,70.000 326.244,70.000 326.583 C 70.000 326.922,69.820 327.200,69.600 327.200 C 69.380 327.200,69.200 327.470,69.200 327.800 C 69.200 328.130,69.020 328.400,68.800 328.400 C 68.580 328.400,68.400 328.597,68.400 328.838 C 68.400 329.079,68.029 329.798,67.575 330.435 C 67.122 331.071,66.725 331.942,66.692 332.369 C 66.660 332.795,66.491 333.056,66.317 332.949 C 66.143 332.841,66.000 333.033,66.000 333.376 C 66.000 333.719,65.820 334.000,65.600 334.000 C 65.380 334.000,65.200 334.197,65.200 334.438 C 65.200 334.679,64.845 335.375,64.412 335.983 C 63.978 336.592,63.713 337.179,63.821 337.288 C 63.930 337.397,63.745 337.714,63.410 337.992 C 63.074 338.270,62.800 338.746,62.800 339.049 C 62.800 339.352,62.651 339.600,62.468 339.600 C 62.286 339.600,61.703 340.545,61.173 341.700 C 60.642 342.855,60.106 343.890,59.980 344.000 C 59.484 344.435,57.600 348.135,57.600 348.674 C 57.600 348.989,57.420 349.136,57.200 349.000 C 56.980 348.864,56.796 348.988,56.791 349.276 C 56.786 349.564,56.430 350.250,56.000 350.800 C 55.570 351.350,55.214 352.100,55.209 352.467 C 55.204 352.833,55.065 353.193,54.900 353.267 C 54.445 353.469,52.800 355.910,52.800 356.384 C 52.800 356.613,52.620 356.800,52.400 356.800 C 52.180 356.800,52.000 357.160,52.000 357.600 C 52.000 358.040,51.809 358.400,51.576 358.400 C 51.343 358.400,51.244 358.547,51.355 358.727 C 51.466 358.907,51.162 359.492,50.679 360.027 C 50.195 360.562,49.554 361.540,49.253 362.200 C 48.953 362.860,48.548 363.713,48.353 364.095 C 48.159 364.477,48.000 365.386,48.000 366.115 C 48.000 366.844,47.784 367.656,47.520 367.920 C 47.198 368.242,47.184 368.400,47.478 368.400 C 47.777 368.400,47.809 368.872,47.581 369.886 C 47.389 370.734,47.400 371.559,47.605 371.806 C 47.802 372.044,48.009 372.905,48.064 373.719 C 48.119 374.534,48.307 375.200,48.482 375.200 C 48.657 375.200,48.800 375.538,48.800 375.951 C 48.800 376.364,49.074 376.930,49.410 377.208 C 49.745 377.486,49.940 377.794,49.843 377.891 C 49.399 378.334,53.376 382.400,54.252 382.400 C 54.579 382.400,54.736 382.580,54.600 382.800 C 54.464 383.020,54.723 383.200,55.176 383.200 C 55.629 383.200,56.000 383.380,56.000 383.600 C 56.000 383.820,56.360 384.000,56.800 384.000 C 57.240 384.000,57.600 384.180,57.600 384.400 C 57.600 384.953,144.258 384.953,144.600 384.400 C 144.736 384.180,145.546 384.000,146.400 384.000 C 147.254 384.000,148.064 383.820,148.200 383.600 C 148.336 383.380,148.876 383.200,149.400 383.200 C 149.924 383.200,150.464 383.020,150.600 382.800 C 150.736 382.580,151.287 382.400,151.824 382.400 C 152.361 382.400,152.800 382.220,152.800 382.000 C 152.800 381.780,153.149 381.600,153.576 381.600 C 154.003 381.600,154.464 381.420,154.600 381.200 C 154.736 380.980,155.197 380.800,155.624 380.800 C 156.051 380.800,156.400 380.620,156.400 380.400 C 156.400 380.180,156.681 380.000,157.024 380.000 C 157.409 380.000,157.537 379.809,157.359 379.500 C 157.201 379.225,157.216 379.130,157.392 379.289 C 157.674 379.545,159.868 378.582,160.400 377.970 C 160.510 377.843,161.274 377.287,162.098 376.734 C 162.922 376.181,163.477 375.610,163.331 375.465 C 163.186 375.319,163.341 375.200,163.676 375.200 C 164.444 375.200,170.398 369.313,171.201 367.759 C 171.530 367.121,172.047 366.341,172.348 366.023 C 172.649 365.706,173.620 363.951,174.506 362.123 C 175.391 360.296,176.269 358.800,176.458 358.800 C 176.646 358.800,176.800 358.440,176.800 358.000 C 176.800 357.560,176.950 357.200,177.132 357.200 C 177.315 357.200,177.720 356.705,178.032 356.100 C 178.344 355.495,178.693 354.910,178.808 354.800 C 178.922 354.690,179.283 354.074,179.608 353.431 C 180.746 351.184,180.992 350.800,181.295 350.800 C 181.463 350.800,181.600 350.369,181.600 349.843 C 181.600 349.316,181.850 348.790,182.156 348.672 C 182.657 348.480,183.170 347.673,184.552 344.903 C 184.799 344.410,185.135 344.005,185.300 344.003 C 185.465 344.001,185.600 343.640,185.600 343.200 C 185.600 342.760,185.735 342.399,185.900 342.397 C 186.065 342.395,186.403 341.990,186.651 341.497 C 186.900 341.004,187.508 339.790,188.004 338.800 C 188.500 337.810,189.077 336.890,189.287 336.755 C 189.497 336.621,189.686 336.351,189.707 336.155 C 189.728 335.960,190.112 335.177,190.561 334.416 C 191.010 333.655,191.416 332.774,191.462 332.456 C 191.509 332.139,191.694 331.772,191.874 331.640 C 192.054 331.508,192.456 330.905,192.768 330.300 C 193.080 329.695,193.485 329.200,193.668 329.200 C 193.850 329.200,194.000 328.917,194.000 328.572 C 194.000 328.227,194.540 327.159,195.200 326.200 C 195.860 325.241,196.400 324.263,196.400 324.028 C 196.400 323.793,196.591 323.600,196.824 323.600 C 197.057 323.600,197.143 323.431,197.015 323.225 C 196.888 323.018,197.066 322.691,197.411 322.498 C 197.756 322.305,198.067 321.766,198.102 321.301 C 198.137 320.836,198.293 320.534,198.449 320.630 C 198.604 320.726,198.970 320.264,199.263 319.602 C 199.556 318.941,199.931 318.400,200.098 318.400 C 200.264 318.400,200.400 318.055,200.400 317.633 C 200.400 317.212,200.541 316.807,200.713 316.733 C 201.160 316.543,202.800 313.651,202.800 313.053 C 202.800 312.777,203.167 312.157,203.616 311.675 C 204.064 311.194,204.325 310.800,204.195 310.800 C 204.065 310.800,204.418 310.198,204.980 309.462 C 205.541 308.726,206.000 307.839,206.000 307.491 C 206.000 307.142,206.232 306.619,206.515 306.329 C 207.424 305.395,208.800 302.927,208.800 302.229 C 208.800 301.857,208.980 301.664,209.200 301.800 C 209.420 301.936,209.604 301.812,209.609 301.524 C 209.614 301.236,209.970 300.550,210.400 300.000 C 210.830 299.450,211.186 298.655,211.191 298.233 C 211.196 297.812,211.315 297.582,211.456 297.723 C 211.713 297.979,213.016 296.011,213.458 294.700 C 213.587 294.315,213.852 294.000,214.047 294.000 C 214.241 294.000,214.400 293.640,214.400 293.200 C 214.400 292.760,214.580 292.400,214.800 292.400 C 215.020 292.400,215.200 292.164,215.200 291.875 C 215.200 291.587,215.515 290.995,215.900 290.560 C 216.285 290.125,216.659 289.506,216.730 289.184 C 216.802 288.863,217.027 288.540,217.230 288.467 C 217.434 288.393,217.600 287.988,217.600 287.567 C 217.600 287.145,217.780 286.800,218.000 286.800 C 218.220 286.800,218.400 286.530,218.400 286.200 C 218.400 285.870,218.545 285.600,218.721 285.600 C 218.898 285.600,219.483 284.703,220.021 283.606 C 220.560 282.510,221.135 281.610,221.300 281.606 C 221.465 281.603,221.600 281.240,221.600 280.800 C 221.600 280.360,221.768 280.000,221.973 280.000 C 222.323 280.000,223.027 278.383,222.825 278.045 C 222.773 277.959,222.897 277.779,223.098 277.645 C 223.300 277.510,223.887 276.545,224.403 275.500 C 224.919 274.455,225.490 273.600,225.671 273.600 C 225.852 273.600,226.000 273.139,226.000 272.576 C 226.000 272.013,226.167 271.656,226.371 271.782 C 226.575 271.908,226.857 271.650,226.997 271.208 C 227.138 270.766,227.522 270.135,227.851 269.806 C 228.180 269.477,228.476 268.854,228.508 268.421 C 228.541 267.988,228.644 267.711,228.738 267.804 C 228.997 268.064,231.600 263.590,231.600 262.885 C 231.600 262.545,231.716 262.383,231.858 262.524 C 232.107 262.774,234.199 259.326,234.665 257.900 C 234.791 257.515,235.052 257.200,235.247 257.200 C 235.441 257.200,235.564 257.065,235.520 256.900 C 235.476 256.735,236.016 255.710,236.720 254.622 C 237.424 253.534,238.000 252.409,238.000 252.122 C 238.000 251.835,238.180 251.600,238.400 251.600 C 238.620 251.600,238.800 251.240,238.800 250.800 C 238.800 250.360,238.968 250.000,239.173 250.000 C 239.378 250.000,239.672 249.603,239.826 249.119 C 239.980 248.634,240.353 247.989,240.656 247.686 C 240.959 247.383,241.105 246.970,240.980 246.768 C 240.855 246.565,240.943 246.400,241.176 246.400 C 241.409 246.400,241.600 246.040,241.600 245.600 C 241.600 245.160,241.780 244.800,242.000 244.800 C 242.220 244.800,242.400 244.564,242.400 244.275 C 242.400 243.987,242.716 243.402,243.103 242.975 C 243.489 242.549,244.074 241.674,244.403 241.031 C 245.568 238.751,245.793 238.400,246.095 238.400 C 246.263 238.400,246.400 238.165,246.400 237.878 C 246.400 237.590,246.858 236.735,247.418 235.978 C 249.144 233.642,252.000 227.016,252.000 225.347 C 252.000 224.826,252.145 224.400,252.322 224.400 C 252.499 224.400,252.688 223.642,252.743 222.715 C 252.798 221.789,253.020 220.817,253.237 220.555 C 253.781 219.899,253.452 204.742,252.838 202.200 C 252.573 201.100,252.256 199.613,252.134 198.896 C 252.012 198.179,251.751 197.494,251.556 197.373 C 251.360 197.252,251.200 196.713,251.200 196.176 C 251.200 195.639,251.020 195.200,250.800 195.200 C 250.580 195.200,250.400 194.840,250.400 194.400 C 250.400 193.960,250.220 193.600,250.000 193.600 C 249.780 193.600,249.600 193.418,249.600 193.196 C 249.600 192.587,247.885 189.020,247.519 188.867 C 247.343 188.793,247.200 188.388,247.200 187.967 C 247.200 187.545,247.020 187.200,246.800 187.200 C 246.580 187.200,246.400 186.952,246.400 186.649 C 246.400 186.346,245.995 185.797,245.500 185.430 C 245.005 185.063,244.808 184.862,245.063 184.982 C 245.413 185.148,245.413 184.958,245.063 184.204 C 244.808 183.655,244.465 183.205,244.300 183.203 C 244.135 183.201,244.000 182.930,244.000 182.600 C 244.000 182.270,243.820 182.000,243.600 182.000 C 243.380 182.000,243.200 181.719,243.200 181.376 C 243.200 181.033,243.020 180.864,242.800 181.000 C 242.452 181.215,242.210 180.404,242.353 179.500 C 242.379 179.335,242.220 179.200,242.000 179.200 C 241.780 179.200,241.600 178.957,241.600 178.660 C 241.600 178.363,241.098 177.418,240.485 176.560 C 239.872 175.702,238.839 173.920,238.190 172.600 C 237.540 171.280,236.907 170.110,236.783 170.000 C 236.660 169.890,236.244 169.125,235.860 168.300 C 235.477 167.475,234.961 166.800,234.715 166.800 C 234.468 166.800,234.382 166.685,234.522 166.544 C 234.663 166.404,234.332 165.759,233.786 165.111 C 233.241 164.463,232.884 163.788,232.993 163.611 C 233.102 163.435,232.925 163.070,232.600 162.800 C 232.275 162.530,232.107 162.150,232.228 161.955 C 232.349 161.760,232.257 161.600,232.024 161.600 C 231.791 161.600,231.600 161.364,231.600 161.075 C 231.600 160.787,231.240 160.164,230.800 159.692 C 230.360 159.220,230.000 158.556,230.000 158.217 C 230.000 157.878,229.820 157.600,229.600 157.600 C 229.380 157.600,229.200 157.368,229.200 157.085 C 229.200 156.802,228.667 155.947,228.016 155.185 C 227.365 154.423,226.825 153.558,226.816 153.262 C 226.807 152.966,226.471 152.246,226.070 151.662 C 225.668 151.078,225.107 150.017,224.823 149.305 C 224.518 148.539,224.122 148.116,223.854 148.269 C 223.604 148.412,223.521 148.393,223.670 148.228 C 223.818 148.063,223.539 147.179,223.050 146.264 C 221.489 143.343,219.843 140.616,219.310 140.068 C 219.025 139.775,218.895 139.370,219.020 139.168 C 219.145 138.965,219.101 138.800,218.921 138.800 C 218.742 138.800,218.349 138.215,218.047 137.500 C 217.745 136.785,216.981 135.536,216.349 134.723 C 215.717 133.911,215.196 133.011,215.191 132.723 C 215.186 132.436,214.830 131.750,214.400 131.200 C 213.970 130.650,213.614 129.975,213.609 129.700 C 213.604 129.425,213.464 129.200,213.298 129.200 C 213.131 129.200,212.737 128.615,212.420 127.900 C 212.104 127.185,211.440 126.162,210.944 125.627 C 210.448 125.092,210.134 124.507,210.245 124.327 C 210.356 124.147,210.257 124.000,210.024 124.000 C 209.791 124.000,209.600 123.640,209.600 123.200 C 209.600 122.760,209.461 122.400,209.291 122.400 C 209.120 122.400,208.369 121.185,207.621 119.700 C 206.872 118.215,206.079 116.879,205.858 116.732 C 205.637 116.585,205.412 116.164,205.358 115.797 C 205.305 115.430,204.949 114.786,204.568 114.365 C 204.188 113.944,204.006 113.600,204.165 113.600 C 204.324 113.600,204.082 113.077,203.627 112.438 C 203.172 111.799,202.800 111.106,202.800 110.898 C 202.800 110.689,202.260 109.954,201.600 109.263 C 200.940 108.572,200.400 107.744,200.400 107.421 C 200.400 107.099,199.860 105.919,199.200 104.800 C 198.540 103.681,198.000 102.582,198.000 102.359 C 198.000 102.135,197.820 102.064,197.600 102.200 C 197.380 102.336,197.196 102.122,197.191 101.724 C 197.186 101.326,196.830 100.550,196.400 100.000 C 195.970 99.450,195.614 98.794,195.609 98.543 C 195.604 98.291,195.319 97.978,194.975 97.846 C 194.631 97.714,194.452 97.440,194.577 97.237 C 194.702 97.034,194.669 96.808,194.502 96.734 C 194.125 96.567,192.826 94.439,192.529 93.500 C 192.407 93.115,192.148 92.800,191.953 92.800 C 191.759 92.800,191.600 92.530,191.600 92.200 C 191.600 91.870,191.240 91.240,190.800 90.800 C 190.360 90.360,190.093 90.000,190.206 90.000 C 190.464 90.000,188.001 85.072,187.607 84.800 C 187.447 84.690,186.705 83.430,185.958 82.000 C 185.211 80.570,184.420 79.272,184.200 79.115 C 183.980 78.958,183.776 78.688,183.746 78.515 C 183.582 77.552,183.066 76.400,182.800 76.400 C 182.631 76.400,182.387 76.085,182.258 75.700 C 181.816 74.389,180.513 72.421,180.256 72.677 C 180.115 72.818,180.000 72.468,180.000 71.900 C 180.000 71.332,179.865 70.807,179.700 70.733 C 179.324 70.566,178.025 68.436,177.729 67.500 C 177.607 67.115,177.348 66.800,177.153 66.800 C 176.959 66.800,176.800 66.530,176.800 66.200 C 176.800 65.870,176.620 65.600,176.400 65.600 C 176.180 65.600,176.000 65.345,176.000 65.033 C 176.000 64.722,175.810 64.403,175.578 64.326 C 175.346 64.249,175.116 63.911,175.067 63.576 C 175.018 63.241,174.578 62.289,174.089 61.461 C 173.600 60.632,173.200 59.785,173.200 59.577 C 173.200 59.370,173.048 59.200,172.863 59.200 C 172.678 59.200,172.183 58.525,171.763 57.700 C 171.343 56.875,170.850 56.090,170.666 55.955 C 170.482 55.821,170.325 55.551,170.318 55.355 C 170.291 54.657,169.642 53.273,169.218 53.011 C 168.981 52.865,168.891 52.577,169.017 52.372 C 169.144 52.168,169.078 52.000,168.870 52.000 C 168.663 52.000,168.393 51.685,168.271 51.300 C 168.048 50.597,166.781 48.373,166.391 48.000 C 165.822 47.456,164.820 45.598,165.091 45.588 C 165.261 45.581,165.081 45.390,164.692 45.163 C 164.302 44.936,164.088 44.582,164.215 44.375 C 164.343 44.169,164.257 44.000,164.024 44.000 C 163.791 44.000,163.600 43.730,163.600 43.400 C 163.600 43.070,163.420 42.800,163.200 42.800 C 162.980 42.800,162.800 42.455,162.800 42.033 C 162.800 41.612,162.665 41.207,162.500 41.133 C 162.124 40.966,160.825 38.836,160.529 37.900 C 160.407 37.515,160.148 37.200,159.953 37.200 C 159.759 37.200,159.600 37.013,159.600 36.784 C 159.600 36.310,157.955 33.869,157.500 33.667 C 157.335 33.593,157.200 33.282,157.200 32.976 C 157.200 32.669,155.805 31.019,154.100 29.309 C 150.948 26.147,150.476 25.738,148.000 24.014 C 147.230 23.477,146.510 22.929,146.400 22.795 C 146.141 22.480,140.472 19.790,139.300 19.426 C 138.805 19.272,138.400 18.978,138.400 18.773 C 138.400 18.568,137.860 18.400,137.200 18.400 C 136.540 18.400,136.000 18.220,136.000 18.000 C 136.000 17.780,135.471 17.600,134.824 17.600 C 134.177 17.600,133.536 17.420,133.400 17.200 C 133.264 16.980,132.274 16.800,131.200 16.800 C 130.126 16.800,129.135 16.618,128.998 16.396 C 128.686 15.892,48.481 15.895,47.600 16.399 M48.661 260.177 C 48.255 260.489,47.693 260.657,47.413 260.550 C 47.133 260.442,46.796 260.634,46.664 260.977 C 46.533 261.320,46.149 261.600,45.813 261.600 C 45.232 261.600,45.135 261.760,45.040 262.867 C 44.992 263.425,48.056 263.757,48.382 263.229 C 48.506 263.028,48.869 262.805,49.188 262.732 C 50.212 262.499,51.277 261.296,51.132 260.536 C 50.957 259.616,49.639 259.424,48.661 260.177 " stroke="none" fill="#04acec" fill-rule="evenodd"></path><path id="path1" d="M197.400 16.400 C 197.264 16.620,196.623 16.800,195.976 16.800 C 195.329 16.800,194.800 16.980,194.800 17.200 C 194.800 17.420,194.485 17.604,194.100 17.609 C 193.715 17.614,192.950 17.970,192.400 18.400 C 191.850 18.830,191.248 19.186,191.063 19.191 C 190.623 19.203,185.603 24.223,185.591 24.663 C 185.586 24.848,185.230 25.450,184.800 26.000 C 184.370 26.550,184.014 27.315,184.009 27.700 C 184.004 28.085,183.820 28.400,183.600 28.400 C 183.380 28.400,183.200 28.929,183.200 29.576 C 183.200 30.223,183.020 30.864,182.800 31.000 C 182.571 31.141,182.400 33.196,182.400 35.800 C 182.400 38.404,182.571 40.459,182.800 40.600 C 183.020 40.736,183.200 41.377,183.200 42.024 C 183.200 42.671,183.380 43.200,183.600 43.200 C 183.820 43.200,184.000 43.560,184.000 44.000 C 184.000 44.440,184.180 44.800,184.400 44.800 C 184.620 44.800,184.800 45.145,184.800 45.567 C 184.800 45.988,184.935 46.393,185.100 46.467 C 185.476 46.634,186.775 48.764,187.071 49.700 C 187.193 50.085,187.452 50.400,187.647 50.400 C 187.841 50.400,188.000 50.670,188.000 51.000 C 188.000 51.330,188.146 51.600,188.325 51.600 C 188.504 51.600,188.898 52.230,189.200 53.000 C 189.502 53.770,189.896 54.400,190.075 54.400 C 190.254 54.400,190.400 54.655,190.400 54.967 C 190.400 55.278,190.539 55.593,190.709 55.667 C 190.880 55.740,191.719 57.150,192.575 58.800 C 193.431 60.450,194.282 61.860,194.466 61.933 C 194.650 62.007,194.800 62.412,194.800 62.833 C 194.800 63.255,194.938 63.600,195.106 63.600 C 195.274 63.600,195.718 64.275,196.094 65.100 C 196.835 66.730,198.062 68.881,198.432 69.200 C 198.560 69.310,198.919 69.985,199.230 70.700 C 199.541 71.415,199.931 72.000,200.098 72.000 C 200.264 72.000,200.400 72.270,200.400 72.600 C 200.400 72.930,200.580 73.200,200.800 73.200 C 201.020 73.200,201.200 73.470,201.200 73.800 C 201.200 74.130,201.380 74.400,201.600 74.400 C 201.820 74.400,202.000 74.760,202.000 75.200 C 202.000 75.640,202.159 76.000,202.353 76.000 C 202.548 76.000,202.807 76.315,202.929 76.700 C 203.146 77.385,204.404 79.604,204.800 80.000 C 204.910 80.110,205.225 80.605,205.500 81.100 C 205.775 81.595,206.225 82.405,206.500 82.900 C 206.775 83.395,207.090 83.890,207.200 84.000 C 207.310 84.110,207.778 84.920,208.239 85.800 C 210.389 89.896,212.191 93.012,212.481 93.133 C 212.657 93.207,212.800 93.612,212.800 94.033 C 212.800 94.455,212.935 94.801,213.100 94.803 C 213.265 94.805,213.587 95.210,213.817 95.703 C 214.481 97.133,216.178 100.181,216.432 100.400 C 216.560 100.510,216.919 101.185,217.230 101.900 C 217.541 102.615,217.931 103.200,218.098 103.200 C 218.264 103.200,218.400 103.470,218.400 103.800 C 218.400 104.130,218.536 104.400,218.702 104.400 C 218.869 104.400,219.264 104.985,219.580 105.700 C 219.897 106.415,220.480 107.349,220.878 107.775 C 221.275 108.202,221.600 108.787,221.600 109.075 C 221.600 109.364,221.780 109.600,222.000 109.600 C 222.220 109.600,222.400 109.878,222.400 110.217 C 222.400 110.556,222.760 111.220,223.200 111.692 C 223.640 112.164,224.000 112.787,224.000 113.075 C 224.000 113.364,224.180 113.600,224.400 113.600 C 224.620 113.600,224.800 113.960,224.800 114.400 C 224.800 114.840,224.980 115.200,225.200 115.200 C 225.420 115.200,225.600 115.538,225.600 115.951 C 225.600 116.364,225.870 116.926,226.200 117.200 C 226.530 117.474,226.800 117.859,226.800 118.056 C 226.800 118.253,227.520 119.600,228.400 121.048 C 229.280 122.497,230.000 123.843,230.000 124.041 C 230.000 124.238,230.180 124.400,230.400 124.400 C 230.620 124.400,230.800 124.745,230.800 125.167 C 230.800 125.588,230.935 125.993,231.100 126.067 C 231.476 126.234,232.775 128.364,233.071 129.300 C 233.193 129.685,233.452 130.000,233.647 130.000 C 233.841 130.000,234.000 130.360,234.000 130.800 C 234.000 131.240,234.159 131.600,234.353 131.600 C 234.548 131.600,234.810 131.915,234.936 132.300 C 235.198 133.100,236.932 136.088,238.047 137.662 C 238.461 138.246,238.800 138.921,238.800 139.162 C 238.800 139.403,238.980 139.600,239.200 139.600 C 239.420 139.600,239.600 139.788,239.600 140.017 C 239.600 140.246,239.960 140.820,240.400 141.292 C 240.840 141.764,241.200 142.387,241.200 142.675 C 241.200 142.964,241.380 143.200,241.600 143.200 C 241.820 143.200,242.000 143.491,242.000 143.846 C 242.000 144.417,243.869 148.280,244.397 148.800 C 244.509 148.910,244.974 149.720,245.430 150.600 C 246.593 152.842,247.361 154.166,247.632 154.400 C 247.760 154.510,248.119 155.185,248.430 155.900 C 248.741 156.615,249.096 157.200,249.219 157.200 C 249.342 157.200,249.883 158.097,250.421 159.194 C 250.960 160.290,251.535 161.190,251.700 161.194 C 251.865 161.197,252.000 161.560,252.000 162.000 C 252.000 162.440,252.180 162.800,252.400 162.800 C 252.620 162.800,252.800 163.070,252.800 163.400 C 252.800 163.730,252.936 164.000,253.102 164.000 C 253.269 164.000,253.662 164.580,253.975 165.289 C 259.504 177.780,282.443 177.799,288.252 165.317 C 288.641 164.483,289.084 163.710,289.237 163.600 C 289.390 163.490,290.136 162.124,290.894 160.564 C 291.653 159.005,292.842 156.902,293.536 155.892 C 294.231 154.882,294.800 153.863,294.800 153.628 C 294.800 153.393,294.980 153.200,295.200 153.200 C 295.420 153.200,295.600 152.930,295.600 152.600 C 295.600 152.270,295.738 152.000,295.906 152.000 C 296.074 152.000,296.518 151.325,296.894 150.500 C 297.580 148.991,298.828 146.772,299.200 146.400 C 299.310 146.290,299.593 145.840,299.829 145.400 C 301.679 141.953,302.226 140.974,302.400 140.800 C 302.510 140.690,302.842 140.170,303.138 139.645 C 303.433 139.120,304.044 138.040,304.494 137.245 C 304.945 136.450,305.768 134.990,306.324 134.000 C 306.880 133.010,307.664 131.660,308.066 131.000 C 308.468 130.340,308.798 129.485,308.799 129.100 C 308.799 128.715,308.950 128.400,309.132 128.400 C 309.315 128.400,309.720 127.905,310.032 127.300 C 310.344 126.695,310.689 126.110,310.799 126.000 C 311.195 125.606,312.454 123.387,312.671 122.700 C 312.793 122.315,313.052 122.000,313.247 122.000 C 313.441 122.000,313.600 121.730,313.600 121.400 C 313.600 121.070,313.780 120.800,314.000 120.800 C 314.220 120.800,314.400 120.440,314.400 120.000 C 314.400 119.560,314.559 119.200,314.754 119.200 C 314.949 119.200,315.401 118.615,315.758 117.900 C 316.115 117.185,316.948 115.700,317.609 114.600 C 318.269 113.500,319.120 111.925,319.499 111.100 C 319.878 110.275,320.326 109.600,320.494 109.600 C 320.662 109.600,320.800 109.434,320.800 109.232 C 320.800 109.029,321.790 107.149,323.000 105.053 C 324.210 102.957,325.200 101.053,325.200 100.821 C 325.200 100.590,325.380 100.400,325.600 100.400 C 325.820 100.400,326.000 100.122,326.000 99.783 C 326.000 99.444,326.360 98.780,326.800 98.308 C 327.240 97.836,327.600 97.213,327.600 96.925 C 327.600 96.636,327.780 96.400,328.000 96.400 C 328.220 96.400,328.400 96.122,328.400 95.783 C 328.400 95.444,328.760 94.780,329.200 94.308 C 329.640 93.836,330.000 93.213,330.000 92.925 C 330.000 92.636,330.180 92.400,330.400 92.400 C 330.620 92.400,330.800 92.040,330.800 91.600 C 330.800 91.160,330.980 90.800,331.200 90.800 C 331.420 90.800,331.600 90.530,331.600 90.200 C 331.600 89.870,331.735 89.599,331.900 89.597 C 332.065 89.595,332.398 89.190,332.640 88.697 C 333.469 87.010,335.000 84.200,335.200 84.000 C 335.572 83.628,336.820 81.409,337.506 79.900 C 337.882 79.075,338.326 78.400,338.494 78.400 C 338.662 78.400,338.800 78.040,338.800 77.600 C 338.800 77.160,338.935 76.799,339.100 76.799 C 339.265 76.798,339.940 75.763,340.600 74.499 C 341.260 73.234,341.890 72.110,342.001 72.000 C 342.111 71.890,342.471 71.260,342.800 70.600 C 343.129 69.940,343.489 69.310,343.599 69.200 C 343.710 69.090,344.025 68.595,344.300 68.100 C 344.575 67.605,345.025 66.795,345.300 66.300 C 345.575 65.805,345.890 65.310,346.000 65.200 C 346.396 64.804,347.654 62.585,347.871 61.900 C 347.993 61.515,348.252 61.200,348.447 61.200 C 348.641 61.200,348.800 60.840,348.800 60.400 C 348.800 59.960,348.959 59.600,349.153 59.600 C 349.348 59.600,349.607 59.285,349.729 58.900 C 349.946 58.215,351.204 55.996,351.600 55.600 C 351.710 55.490,352.042 54.970,352.338 54.445 C 352.633 53.920,353.247 52.840,353.701 52.045 C 354.699 50.297,356.466 47.142,357.590 45.101 C 358.044 44.277,358.526 42.792,358.662 41.801 C 358.798 40.811,359.064 40.000,359.254 40.000 C 359.444 40.000,359.600 38.110,359.600 35.800 C 359.600 33.490,359.445 31.600,359.256 31.600 C 359.066 31.600,358.809 30.732,358.683 29.670 C 358.400 27.283,356.522 24.093,353.812 21.400 C 351.933 19.533,351.234 19.017,349.200 18.000 C 348.760 17.780,348.042 17.420,347.605 17.200 C 347.168 16.980,346.369 16.800,345.829 16.800 C 345.289 16.800,344.736 16.620,344.600 16.400 C 344.258 15.846,197.742 15.846,197.400 16.400 M367.880 24.253 C 367.726 24.407,367.600 25.043,367.600 25.667 C 367.600 26.974,369.412 27.355,369.876 26.146 C 370.326 24.972,368.702 23.431,367.880 24.253 M387.692 28.068 C 386.965 28.795,387.095 30.316,387.922 30.758 C 389.019 31.345,389.676 30.692,389.530 29.161 C 389.392 27.719,388.545 27.215,387.692 28.068 M47.293 369.600 C 47.293 370.370,47.375 370.685,47.476 370.300 C 47.576 369.915,47.576 369.285,47.476 368.900 C 47.375 368.515,47.293 368.830,47.293 369.600 " stroke="none" fill="#a41c84" fill-rule="evenodd"></path><path id="path2" d="" stroke="none" fill="#2cb0bc" fill-rule="evenodd"></path><path id="path3" d="" stroke="none" fill="#2cb0bc" fill-rule="evenodd"></path><path id="path4" d="" stroke="none" fill="#2cb0bc" fill-rule="evenodd"></path></g></svg>